<svg height="511pt" viewBox="-51 0 511 511.99889" width="511pt" xmlns="http://www.w3.org/2000/svg"><path d="m401.566406 406.269531c.011719 21.257813-8.425781 41.644531-23.457031 56.675781-15.027344 15.027344-35.417969 23.464844-56.671875 23.453126l-30.804688 17.066406h-170.667968l-30.804688-17.066406c-42.910156-.011719-78.203125-33.816407-80.054687-76.691407-1.851563-42.871093 30.390625-79.597656 73.144531-83.308593l42.921875-3.753907 25.683594-2.21875h108.886719l24.40625 2.132813 44.203124 3.839844c41.417969 3.621093 73.203126 38.292968 73.214844 79.871093zm0 0" fill="#cad9fc"/><path d="m375.964844 406.269531c.015625 21.257813-8.425782 41.644531-23.453125 56.675781-15.03125 15.027344-35.417969 23.464844-56.671875 23.453126l-30.808594 17.066406h-145.066406l-30.804688-17.066406c-42.910156-.011719-78.203125-33.816407-80.054687-76.691407-1.851563-42.871093 30.390625-79.597656 73.144531-83.308593l42.921875-3.753907 25.683594-2.21875h83.285156l24.40625 2.132813 44.203125 3.839844c41.417969 3.621093 73.203125 38.292968 73.214844 79.871093zm0 0" fill="#e8edfc"/><path d="m284.148438 322.558594-44.714844 61.441406h-68.265625l-45.996094-61.355469 25.683594-2.21875h108.886719zm0 0" fill="#cad9fc"/><path d="m307.699219 145.066406s17.066406-51.199218 8.535156-68.265625c-6.53125-9.941406-15.296875-18.210937-25.601563-24.152343l-51.199218 7.082031 17.066406 85.335937 25.597656 25.597656zm0 0" fill="#7facfa"/><path d="m290.546875 151.292969c5.886719-4.691407 25.6875-18.089844 25.6875 18.773437 0 35.074219-22.359375 41.730469-30.890625 43.011719h-160.085938c-8.535156-1.28125-30.890624-7.9375-30.890624-43.011719 0-36.863281 19.796874-23.464844 25.683593-18.773437zm0 0" fill="#cad9fc"/><path d="m350.367188 443.730469v34.136719l-2.945313 4.21875c-8.363281 2.863281-17.144531 4.320312-25.984375 4.3125l-30.804688 17.066406h-170.667968l-30.804688-17.066406c-8.839844.007812-17.617187-1.449219-25.984375-4.3125l-2.941406-4.21875v-34.136719c0-9.425781 7.640625-17.066407 17.066406-17.066407h256c9.425781 0 17.066407 7.640626 17.066407 17.066407zm0 0" fill="#cad9fc"/><path d="m333.300781 409.597656v68.269532c0 14.136718-11.460937 25.597656-25.601562 25.597656h-204.800781c-14.136719 0-25.597657-11.460938-25.597657-25.597656v-68.269532" fill="#e8edfc"/><path d="m265.03125 332.800781-59.730469 51.199219-3.328125-2.902344-56.40625-48.296875c2.007813-4.015625 3.777344-8.148437 5.289063-12.375 3.652343-9.796875 6.394531-19.910156 8.191406-30.207031 1.109375-5.890625 1.878906-11.351562 2.390625-16.128906l87.636719-.171875c1.6875 15.875 5.265625 31.488281 10.667969 46.507812 1.515624 4.226563 3.28125 8.359375 5.289062 12.375zm0 0" fill="#a4c2f7"/><path d="m239.433594 349.011719-37.460938 32.085937-56.40625-48.296875c2.007813-4.015625 3.777344-8.148437 5.289063-12.375 3.652343-9.796875 6.394531-19.910156 8.191406-30.207031l64.429687-.085938c1.683594 15.871094 5.265626 31.484376 10.664063 46.507813 1.515625 4.226563 3.28125 8.355469 5.292969 12.371094zm0 0" fill="#cad9fc"/><path d="m205.300781 384-34.132812 25.597656-85.335938-85.332031 34.132813-17.066406 25.601562 25.601562zm0 0" fill="#e8edfc"/><path d="m265.03125 332.800781 25.601562-25.601562 34.132813 17.066406-85.332031 85.332031-34.132813-25.597656zm0 0" fill="#e8edfc"/><path d="m290.632812 141.824219c0 3.242187 0 6.398437-.085937 9.46875.269531 20.671875-1.933594 41.296875-6.570313 61.441406-2.269531 9.015625-5.414062 17.792969-9.386718 26.199219-12.117188 25.597656-33.195313 51.199218-69.289063 51.199218-4.261719-.011718-8.515625-.382812-12.714843-1.109374h-.171876c-28.5-5.292969-45.996093-27.5625-56.574218-50.089844-3.945313-8.410156-7.0625-17.183594-9.304688-26.199219-4.59375-20.148437-6.769531-40.773437-6.484375-61.441406-.085937-2.046875-.085937-4.09375-.085937-6.226563v-93.867187l151.46875 23.210937c12.03125 13.824219 19.199218 35.15625 19.199218 67.414063zm0 0" fill="#cad9fc"/><path d="m265.03125 141.824219c0 3.242187 0 6.398437-.082031 9.46875.269531 20.671875-1.9375 41.296875-6.574219 61.441406-2.269531 9.015625-5.414062 17.792969-9.386719 26.199219-10.578125 22.355468-28.074219 44.796875-56.402343 50.089844h-.171876c-28.5-5.292969-45.996093-27.5625-56.574218-50.089844-3.945313-8.410156-7.0625-17.183594-9.304688-26.199219-4.59375-20.148437-6.769531-40.773437-6.484375-61.441406-.085937-2.046875-.085937-4.09375-.085937-6.226563v-89.941406l125.867187 19.285156c12.03125 13.824219 19.199219 35.15625 19.199219 67.414063zm0 0" fill="#e8edfc"/><path d="m102.898438 145.066406c-4.824219-19.578125-7.683594-39.589844-8.53125-59.734375 0-25.601562 8.53125-59.734375 59.730468-59.734375 51.203125 0 119.46875 8.535156 136.535156-17.066406 0 0 17.066407 68.269531-34.132812 68.269531s-136.535156-17.070312-136.535156 76.796875zm0 0" fill="#a4c2f7"/><path d="m256.5 76.800781c-5.886719 0-12.289062-.257812-18.945312-.429687 29.867187-4.007813 31.488281-35.070313 29.695312-53.757813 9.242188-1.710937 17.550781-6.710937 23.382812-14.082031 0 0 17.066407 68.269531-34.132812 68.269531zm0 0" fill="#7facfa"/><path d="m145.632812 151.28125.019532.011719c-.007813-.140625 0-.289063-.007813-.429688zm0 0" fill="#fff"/><path d="m60.488281 481.109375c.855469.328125 1.746094.570313 2.613281.871094l.078126.105469c.765624.265624 1.566406.457031 2.34375.699218.914062.28125 1.824218.566406 2.75.816406 1.355468.367188 2.730468.671876 4.109374.964844.890626.191406 1.769532.402344 2.667969.5625 1.179688.207032 2.382813.355469 3.582031.511719 3.347657 10.589844 13.160157 17.796875 24.265626 17.824219h25.601562c-11.105469-.027344-20.917969-7.234375-24.269531-17.824219-1.199219-.15625-2.398438-.304687-3.582031-.511719-.898438-.160156-1.777344-.371094-2.664063-.558594-1.382813-.296874-2.757813-.597656-4.113281-.964843-.925782-.25-1.835938-.535157-2.75-.820313-.777344-.238281-1.578125-.433594-2.34375-.695312l-.074219-.109375c-.867187-.296875-1.761719-.542969-2.613281-.871094-34.863282-13.371094-55.875-49.039063-50.675782-86.011719 5.199219-36.972656 35.238282-65.460937 72.433594-68.695312l5.257813-.460938-1.671875-1.675781 17.066406-8.535156-8.535156-8.53125-34.132813 17.066406 1.675781 1.671875-5.257812.460938c-37.199219 3.238281-67.234375 31.722656-72.4375 68.699218-5.199219 36.972656 15.816406 72.640625 50.675781 86.011719zm0 0" fill="#fff"/><path d="m94.367188 170.066406c0 35.074219 22.355468 41.730469 30.890624 43.011719h1.382813c2.226563 8.894531 5.304687 17.550781 9.199219 25.855469 5.996094 13.421875 14.796875 25.410156 25.804687 35.15625h-.207031c-.511719 4.777344-1.28125 10.238281-2.390625 16.128906-1.476563 8.238281-3.527344 16.367188-6.136719 24.324219l7.289063 7.289062 16.257812-1.40625c3.652344-9.796875 6.394531-19.910156 8.191407-30.207031 1.109374-5.890625 1.878906-11.351562 2.390624-16.128906h.203126c-11.007813-9.746094-19.804688-21.734375-25.804688-35.15625-3.890625-8.304688-6.972656-16.960938-9.199219-25.855469h-1.382812c-8.53125-1.28125-30.890625-7.9375-30.890625-43.011719 0-16.917968 4.183594-23.191406 9.265625-24.632812l-.730469-.367188c-4.828125-19.578125-7.683594-39.589844-8.535156-59.734375 0-24.398437 7.84375-56.480469 52.90625-59.441406-6.417969-.167969-12.71875-.292969-18.773438-.292969-51.199218 0-59.730468 34.132813-59.730468 59.734375.847656 20.144531 3.707031 40.15625 8.53125 59.734375l.734374.367188c-5.085937 1.441406-9.265624 7.714844-9.265624 24.632812zm25.683593-18.773437-.015625-.011719.011719-.417969c.003906.140625 0 .289063.003906.429688zm0 0" fill="#fff"/><path d="m205.300781 298.664062c-33.238281 0-59.929687-19.398437-77.183593-56.101562-4.179688-8.898438-7.476563-18.179688-9.851563-27.71875-4.78125-20.804688-7.050781-42.109375-6.75-63.453125-.078125-1.910156-.085937-4.070313-.085937-6.324219v-1.707031c0-4.714844 3.820312-8.535156 8.535156-8.535156 4.710937 0 8.53125 3.820312 8.53125 8.535156v1.707031c0 2.011719 0 3.949219.078125 5.882813-.3125 20.070312 1.777343 40.109375 6.226562 59.683593 2.101563 8.480469 5.03125 16.730469 8.738281 24.640626 14.464844 30.75 35.234376 46.324218 61.761719 46.324218 26.3125 0 47.03125-15.582031 61.578125-46.316406 3.742188-7.910156 6.699219-16.167969 8.828125-24.652344 4.488281-19.484375 6.605469-39.4375 6.308594-59.429687.085937-3.132813.085937-6.214844.085937-9.375 0-28.375-5.597656-48.59375-17.105468-61.808594-2-2.300781-2.625-5.492187-1.632813-8.375.988281-2.886719 3.445313-5.023437 6.4375-5.605469 2.992188-.585937 6.070313.472656 8.070313 2.773438 14.328125 16.460937 21.296875 40.34375 21.296875 73.015625 0 3.320312 0 6.558593-.085938 9.703125.289063 21.304687-2.007812 42.566406-6.832031 63.316406-2.402344 9.550781-5.734375 18.84375-9.949219 27.742188-17.363281 36.6875-43.988281 56.078124-77 56.078124zm0 0" fill="#428dff"/><path d="m125.269531 221.609375c-.425781 0-.855469-.03125-1.277343-.09375-8.953126-1.34375-38.160157-9.035156-38.160157-51.449219 0-6.363281 0-25.734375 12.75-31.878906 7.535157-3.625 17.039063-1.335938 26.785157 6.429688 2.382812 1.902343 3.574218 4.929687 3.121093 7.941406-.453125 3.015625-2.480469 5.5625-5.316406 6.675781-2.835937 1.117187-6.054687.632813-8.4375-1.265625-4.738281-3.777344-8.042969-4.609375-8.785156-4.386719.027343 0-3.050781 2.652344-3.050781 16.484375 0 26.988282 14.804687 33.242188 23.628906 34.570313 4.414062.667969 7.566406 4.621093 7.238281 9.070312-.332031 4.449219-4.03125 7.894531-8.496094 7.902344zm0 0" fill="#428dff"/><path d="m285.328125 221.609375c-4.460937-.007813-8.164063-3.453125-8.492187-7.902344-.332032-4.449219 2.824218-8.402343 7.234374-9.070312 8.824219-1.324219 23.628907-7.578125 23.628907-34.570313 0-13.851562-3.082031-16.492187-3.113281-16.515625-.753907-.242187-3.992188.644531-8.71875 4.417969-2.386719 1.898438-5.601563 2.382812-8.441407 1.265625-2.835937-1.113281-4.863281-3.660156-5.316406-6.675781-.453125-3.011719.738281-6.039063 3.125-7.941406 9.753906-7.765626 19.269531-10.058594 26.78125-6.429688 12.75 6.144531 12.75 25.515625 12.75 31.878906 0 42.414063-29.203125 50.101563-38.152344 51.449219-.425781.0625-.855469.09375-1.285156.09375zm0 0" fill="#428dff"/><path d="m82.984375 334.902344c-34.289063 2.988281-61.605469 29.945312-65.054687 64.191406-.230469 2.386719-.339844 4.777344-.363282 7.175781h-17.066406c.027344-2.960937.160156-5.921875.449219-8.875 4.265625-42.414062 38.097656-75.796875 80.566406-79.496093zm0 0" fill="#fff"/><g fill="#428dff"><path d="m42.691406 340.980469c2.566406 3.636719 7.402344 4.84375 11.375 2.847656 8.902344-4.984375 18.757813-8.027344 28.917969-8.925781l-1.46875-17.003906c-12.589844 1.109374-24.800781 4.878906-35.824219 11.058593-2.109375 1.089844-3.644531 3.03125-4.21875 5.335938-.574218 2.300781-.132812 4.738281 1.21875 6.6875zm0 0"/><path d="m.5 406.269531h17.066406c.027344-2.398437.132813-4.789062.363282-7.175781.261718-2.527344.652343-5.039062 1.171874-7.527344.6875-4.394531-1.925781-8.632812-6.160156-9.992187-2.269531-.699219-4.726562-.390625-6.746094.855469-2.019531 1.242187-3.40625 3.300781-3.796874 5.640624-.644532 3.082032-1.128907 6.195313-1.449219 9.324219-.289063 2.953125-.421875 5.914063-.449219 8.875zm0 0"/><path d="m31.433594 363.933594c1.171875-1.714844 1.695312-3.789063 1.480468-5.855469l-.335937-1.554687c-.160156-.550782-.382813-1.078126-.667969-1.574219-.207031-.5-.480468-.972657-.820312-1.398438-.351563-.449219-.738282-.875-1.148438-1.273437-2.597656-2.476563-6.558594-2.835938-9.558594-.863282-3.199218 1.925782-4.925781 5.585938-4.375 9.277344.253907 1.117188.742188 2.171875 1.429688 3.089844.652344.90625 1.484375 1.671875 2.445312 2.238281 1.953126 1.078125 4.210938 1.457031 6.410157 1.078125 2.039062-.402344 3.863281-1.527344 5.140625-3.164062zm0 0"/><path d="m82.242188 334.933594c-4.570313-.015625-8.320313-3.628906-8.5-8.195313-.179688-4.570312 3.269531-8.46875 7.824218-8.84375l5.289063-.425781c3.074219-.308594 6.074219 1.070312 7.84375 3.601562s2.035156 5.820313.691406 8.601563-4.085937 4.617187-7.167969 4.804687l-5.292968.425782c-.230469.019531-.460938.03125-.6875.03125zm0 0"/><path d="m78.589844 494.164062c-.371094 0-.746094-.023437-1.117188-.070312-44.019531-5.882812-76.910156-43.410156-76.972656-87.824219 0-4.710937 3.820312-8.53125 8.53125-8.53125 4.714844 0 8.535156 3.820313 8.535156 8.53125.042969 35.851563 26.585938 66.144531 62.117188 70.902344 4.460937.578125 7.707031 4.519531 7.417968 9.007813-.289062 4.488281-4.011718 7.984374-8.511718 7.988281zm0 0"/><path d="m332.007812 494.164062c-4.5-.003906-8.222656-3.496093-8.511718-7.984374-.285156-4.492188 2.960937-8.433594 7.421875-9.011719 36.191406-4.828125 62.949219-36.121094 62.097656-72.625-.855469-36.5-29.042969-66.511719-65.421875-69.644531l-5.21875-.421876c-4.625-.464843-8.027344-4.542968-7.65625-9.171874.371094-4.632813 4.382812-8.117188 9.019531-7.835938l5.292969.425781c45.066406 3.867188 79.996094 41.042969 81.046875 86.265625 1.050781 45.21875-32.113281 83.976563-76.953125 89.933594-.371094.050781-.742188.070312-1.117188.070312zm0 0"/><path d="m307.699219 512h-204.800781c-18.839844-.023438-34.109376-15.292969-34.132813-34.132812v-51.203126c0-4.710937 3.820313-8.53125 8.535156-8.53125 4.710938 0 8.53125 3.820313 8.53125 8.53125v51.203126c.011719 9.421874 7.644531 17.054687 17.066407 17.066406h204.800781c9.421875-.011719 17.058593-7.644532 17.066406-17.066406v-51.203126c0-4.710937 3.820313-8.53125 8.535156-8.53125 4.710938 0 8.53125 3.820313 8.53125 8.53125v51.203126c-.019531 18.839843-15.289062 34.109374-34.132812 34.132812zm0 0"/><path d="m205.300781 392.53125c-2.039062.003906-4.007812-.726562-5.554687-2.054688l-59.734375-51.199218c-2.992188-2.566406-3.839844-6.847656-2.046875-10.363282 1.855468-3.707031 3.488281-7.527343 4.882812-11.433593 5.167969-14.304688 8.5625-29.1875 10.101563-44.320313.515625-4.6875 4.730469-8.066406 9.414062-7.554687 4.683594.511719 8.066407 4.726562 7.554688 9.414062-1.695313 16.535157-5.417969 32.804688-11.082031 48.433594-.949219 2.566406-1.867188 4.902344-2.800782 7.082031l49.265625 42.226563 49.261719-42.226563c-.941406-2.191406-1.871094-4.550781-2.828125-7.167968-5.664063-15.640626-9.402344-31.914063-11.136719-48.457032-.40625-3.054687.867188-6.089844 3.328125-7.945312 2.464844-1.851563 5.734375-2.234375 8.558594-.996094 2.820313 1.238281 4.757813 3.902344 5.066406 6.96875 1.578125 15.183594 4.992188 30.117188 10.171875 44.476562 1.402344 3.929688 3.042969 7.773438 4.910156 11.503907 1.792969 3.515625.945313 7.796875-2.046874 10.363281l-59.734376 51.199219c-1.546874 1.328125-3.515624 2.054687-5.550781 2.050781zm0 0"/><path d="m102.890625 153.597656c-3.910156-.003906-7.320313-2.667968-8.269531-6.460937-5.015625-20.25-7.960938-40.957031-8.789063-61.804688 0-44.019531 24.246094-68.265625 68.265625-68.265625 10.191406 0 21.050782.332032 32.054688.675782 38.46875 1.183593 86.3125 2.65625 97.378906-13.945313 1.875-2.808594 5.230469-4.246094 8.558594-3.671875 3.324218.578125 6 3.058594 6.820312 6.335938.417969 1.667968 9.984375 41.007812-7.667968 63.609374-8.449219 10.382813-21.378907 16.0625-34.738282 15.261719h-.003906c-8.984375 0-18.695312-.738281-28.976562-1.519531-30.195313-2.304688-64.425782-4.902344-83.035157 12.351562-10.757812 9.972657-15.988281 25.96875-15.988281 48.902344.019531 3.046875-1.585938 5.875-4.214844 7.417969s-5.882812 1.566406-8.535156.0625c-2.648438-1.507813-4.296875-4.3125-4.316406-7.359375-.054688 3.871094-2.710938 7.21875-6.46875 8.15625-.675782.167969-1.375.253906-2.074219.253906zm51.207031-119.464844c-34.925781 0-51.199218 16.269532-51.199218 51.199219.855468 19.449219 3.628906 38.761719 8.277343 57.667969.15625.625.242188 1.261719.257813 1.90625.023437-27.867188 7.046875-47.902344 21.449218-61.257812 24.085938-22.328126 62.25-19.425782 95.933594-16.855469 9.949219.753906 19.347656 1.472656 27.683594 1.472656h.003906c8.082032.710937 16.011719-2.527344 21.285156-8.695313 6.175782-10.425781 8.558594-22.664062 6.757813-34.644531-22.285156 12.246094-61.132813 11.042969-98.917969 9.871094-10.824218-.332031-21.503906-.664063-31.53125-.664063zm0 0"/><path d="m307.699219 153.597656c-2.742188 0-5.316407-1.316406-6.921875-3.542968-1.601563-2.222657-2.039063-5.082032-1.171875-7.683594 6.613281-19.882813 13.78125-52.183594 8.996093-61.753906-5.84375-8.597657-13.59375-15.726563-22.648437-20.832032-2.550781-1.671875-4.011719-4.574218-3.839844-7.621094.171875-3.042968 1.957031-5.761718 4.679688-7.136718 2.722656-1.371094 5.96875-1.1875 8.519531.484375 11.660156 6.628906 21.476562 16.074219 28.554688 27.46875 9.625 19.257812-5.035157 65.671875-8.070313 74.785156-1.164063 3.484375-4.425781 5.832031-8.097656 5.832031zm0 0"/><path d="m171.171875 418.132812c-2.265625.003907-4.4375-.898437-6.039063-2.5l-85.332031-85.335937c-1.941406-1.9375-2.828125-4.691406-2.390625-7.398437.441406-2.707032 2.15625-5.039063 4.609375-6.265626l34.132813-17.066406c3.285156-1.644531 7.253906-1 9.847656 1.597656l25.601562 25.601563c3.234376 3.347656 3.1875 8.671875-.105468 11.960937-3.289063 3.292969-8.613282 3.339844-11.960938.105469l-21.246094-21.25-18.050781 9.019531 71.726563 71.734376 28.214844-21.164063c3.769531-2.828125 9.117187-2.0625 11.945312 1.707031 2.828125 3.769532 2.066406 9.117188-1.707031 11.945313l-34.132813 25.601562c-1.472656 1.109375-3.269531 1.707031-5.113281 1.707031zm0 0"/><path d="m239.433594 418.132812c-1.847656 0-3.644532-.597656-5.121094-1.707031l-34.132812-25.601562c-3.769532-2.828125-4.535157-8.175781-1.707032-11.945313 2.828125-3.769531 8.175782-4.535156 11.945313-1.707031l28.214843 21.164063 71.730469-71.730469-18.046875-9.019531-21.246094 21.246093c-3.351562 3.234375-8.671874 3.1875-11.964843-.101562-3.289063-3.292969-3.335938-8.617188-.101563-11.964844l25.597656-25.597656c2.601563-2.59375 6.5625-3.238281 9.851563-1.601563l34.132813 17.066406c2.453124 1.226563 4.167968 3.558594 4.605468 6.265626.441406 2.707031-.449218 5.460937-2.386718 7.402343l-85.332032 85.332031c-1.601562 1.601563-3.773437 2.503907-6.039062 2.5zm0 0"/><path d="m205.300781 512c-4.714843 0-8.535156-3.820312-8.535156-8.535156v-119.464844c0-4.714844 3.820313-8.535156 8.535156-8.535156 4.710938 0 8.53125 3.820312 8.53125 8.535156v119.464844c0 4.714844-3.820312 8.535156-8.53125 8.535156zm0 0"/></g></svg>